<svg width="14" height="14" viewBox="0 0 14 14" fill="none" xmlns="http://www.w3.org/2000/svg">
    <path fill-rule="evenodd" clip-rule="evenodd" d="M1 3.33333C1 1.58319 1.01874 1 3.33333 1C5.64793 1 5.66667 1.58319 5.66667 3.33333C5.66667 5.08347 5.67405 5.66667 3.33333 5.66667C0.992618 5.66667 1 5.08347 1 3.33333Z" stroke="#1A2134" stroke-width="1.5" stroke-linecap="round" stroke-linejoin="round"/>
    <path fill-rule="evenodd" clip-rule="evenodd" d="M8.33333 3.33333C8.33333 1.58319 8.35207 1 10.6667 1C12.9813 1 13 1.58319 13 3.33333C13 5.08347 13.0074 5.66667 10.6667 5.66667C8.32595 5.66667 8.33333 5.08347 8.33333 3.33333Z" stroke="#1A2134" stroke-width="1.5" stroke-linecap="round" stroke-linejoin="round"/>
    <path fill-rule="evenodd" clip-rule="evenodd" d="M1 10.6667C1 8.91657 1.01874 8.33337 3.33333 8.33337C5.64793 8.33337 5.66667 8.91657 5.66667 10.6667C5.66667 12.4169 5.67405 13 3.33333 13C0.992618 13 1 12.4169 1 10.6667Z" stroke="#1A2134" stroke-width="1.5" stroke-linecap="round" stroke-linejoin="round"/>
    <path fill-rule="evenodd" clip-rule="evenodd" d="M8.33333 10.6667C8.33333 8.91657 8.35207 8.33337 10.6667 8.33337C12.9813 8.33337 13 8.91657 13 10.6667C13 12.4169 13.0074 13 10.6667 13C8.32595 13 8.33333 12.4169 8.33333 10.6667Z" stroke="#1A2134" stroke-width="1.5" stroke-linecap="round" stroke-linejoin="round"/>
</svg>
