<svg width="23" height="23" viewBox="0 0 23 23" fill="none" xmlns="http://www.w3.org/2000/svg">
<path d="M17.5124 1.99829H15.9054V7.43716C15.9054 7.81928 15.519 8.00822 15.2197 7.52845L14.1582 5.83013L13.0968 7.52845C12.7953 8.0061 12.4111 7.81928 12.4111 7.43716V1.99829H7.02317C5.72072 2.00179 4.66675 3.05863 4.66675 4.36108V18.3085C4.67025 19.6085 5.72321 20.6615 7.02317 20.665H17.5145C17.8015 20.6645 18.0764 20.5499 18.2788 20.3465C18.4822 20.1442 18.5967 19.8692 18.5972 19.5823V3.08309C18.5961 2.48444 18.1111 1.99946 17.5124 1.99829ZM17.7141 17.8627L7.47747 17.8755C7.25435 17.8909 7.07682 18.0684 7.06143 18.2915C7.0444 18.5383 7.23068 18.7522 7.47747 18.7692H17.7141L17.712 19.5929C17.7121 19.642 17.693 19.6892 17.6589 19.7245C17.6236 19.7586 17.5764 19.7777 17.5273 19.7776H7.02317C6.2171 19.7776 5.56367 19.1242 5.56367 18.3181C5.56367 17.512 6.2171 16.8586 7.02317 16.8586H17.5273C17.63 16.8598 17.7129 16.9427 17.7141 17.0454V17.8627Z" fill="#838383"/>
</svg>
